<?xml version="1.0" encoding="UTF-8" standalone="no"?>
<svg
   xmlns:dc="http://purl.org/dc/elements/1.1/"
   xmlns:cc="http://creativecommons.org/ns#"
   xmlns:rdf="http://www.w3.org/1999/02/22-rdf-syntax-ns#"
   xmlns:svg="http://www.w3.org/2000/svg"
   xmlns="http://www.w3.org/2000/svg"
   xmlns:sodipodi="http://sodipodi.sourceforge.net/DTD/sodipodi-0.dtd"
   xmlns:inkscape="http://www.inkscape.org/namespaces/inkscape"
   height="517.99902pt"
   viewBox="-38 0 442.83118 518.00005"
   width="442.83118pt"
   version="1.1"
   id="svg12"
   sodipodi:docname="email-message.svg"
   inkscape:version="0.92.2 (5c3e80d, 2017-08-06)">
  <metadata
     id="metadata18">
    <rdf:RDF>
      <cc:Work
         rdf:about="">
        <dc:format>image/svg+xml</dc:format>
        <dc:type
           rdf:resource="http://purl.org/dc/dcmitype/StillImage" />
        <dc:title></dc:title>
      </cc:Work>
    </rdf:RDF>
  </metadata>
  <defs
     id="defs16" />
  <sodipodi:namedview
     pagecolor="#ffffff"
     bordercolor="#666666"
     borderopacity="1"
     objecttolerance="10"
     gridtolerance="10"
     guidetolerance="10"
     inkscape:pageopacity="0"
     inkscape:pageshadow="2"
     inkscape:window-width="1920"
     inkscape:window-height="986"
     id="namedview14"
     showgrid="false"
     fit-margin-top="0"
     fit-margin-left="0"
     fit-margin-right="0"
     fit-margin-bottom="0"
     inkscape:zoom="0.34570313"
     inkscape:cx="294.66609"
     inkscape:cy="345.33201"
     inkscape:window-x="-11"
     inkscape:window-y="-11"
     inkscape:window-maximized="1"
     inkscape:current-layer="svg12" />
  <path
     d="M 342.79247,3.0000057 H 54.179189 c -32.558594,0 -59.0468763,26.4843753 -59.0468763,59.0390623 V 148.71876 L -32.777843,176.6211 c -1.421875,1.42578 -2.222656,3.35547 -2.222656,5.36719 v 191.53906 c 0,4.19141 3.398438,7.58985 7.589844,7.58985 4.191406,0 7.589844,-3.39844 7.589844,-7.58985 V 189.57813 h 78.964843 c 32.554689,0 59.039058,-26.48437 59.039058,-59.03515 V 51.585944 h 194.46875 c 24.1875,0 43.86719,19.671874 43.86719,43.859374 v 70.605472 c 0,4.19141 3.39844,7.58984 7.58985,7.58984 4.1914,0 7.58984,-3.39843 7.58984,-7.58984 V 95.445318 c 0,-32.554687 -26.48828,-59.039062 -59.04688,-59.039062 H 110.59325 c -2.01172,0 -3.94141,0.796875 -5.36719,2.222656 L 10.312001,133.53907 V 62.039068 c 0,-24.183593 19.675781,-43.859374 43.867188,-43.859374 H 342.79247 c 24.18359,0 43.85937,19.675781 43.85937,43.859374 V 434.51563 c 0,11.48047 -5.98828,21.6211 -15.24218,27.25 0.1875,-1.91015 0.28906,-3.84765 0.28906,-5.80468 V 196.41407 c 0,-4.1914 -3.39844,-7.58984 -7.58984,-7.58984 -4.19141,0 -7.58985,3.39844 -7.58985,7.58984 v 259.54688 c 0,24.18359 -19.67969,43.85937 -43.86719,43.85937 H 24.038563 c -24.18359328,0 -43.859374,-19.67187 -43.859374,-43.85937 v -52.07422 c 0,-4.19141 -3.398438,-7.58985 -7.589844,-7.58985 -4.191406,0 -7.589844,3.39844 -7.589844,7.58985 v 52.07422 c 0,32.55468 26.4843747,59.03906 59.039062,59.03906 H 312.65184 c 23.95313,0 44.60547,-14.33984 53.85938,-34.88281 20.70703,-5.27344 35.32031,-23.8086 35.32031,-45.60157 V 62.039068 c 0,-32.554687 -26.48437,-59.0390623 -59.03906,-59.0390623 z M 59.144032,174.39845 H -9.0864373 L 103.00341,62.316412 v 68.222658 c 0,24.1836 -19.675779,43.85938 -43.859378,43.85938 z m 0,0"
     id="path2"
     style="fill:#bad700;fill-opacity:1;stroke:#bad700;stroke-width:6.00001144;stroke-miterlimit:4;stroke-dasharray:none;stroke-opacity:1"
     inkscape:connector-curvature="0" />
  <path
     d="M 46.120595,314.1172 H 290.57762 c 4.19141,0 7.58985,-3.39844 7.58985,-7.58985 0,-4.1914 -3.39844,-7.58984 -7.58985,-7.58984 H 46.120595 c -4.191406,0 -7.589844,3.39844 -7.589844,7.58984 0,4.19141 3.398438,7.58985 7.589844,7.58985 z m 0,0"
     id="path4"
     style="fill:#bad700;fill-opacity:1;stroke:#bad700;stroke-width:6.00001144;stroke-miterlimit:4;stroke-dasharray:none;stroke-opacity:1"
     inkscape:connector-curvature="0" />
  <path
     d="M 46.120595,358.19923 H 290.57762 c 4.19141,0 7.58985,-3.39844 7.58985,-7.58985 0,-4.1914 -3.39844,-7.58984 -7.58985,-7.58984 H 46.120595 c -4.191406,0 -7.589844,3.39844 -7.589844,7.58984 0,4.19141 3.398438,7.58985 7.589844,7.58985 z m 0,0"
     id="path6"
     style="fill:#bad700;fill-opacity:1;stroke:#bad700;stroke-width:6.00001144;stroke-miterlimit:4;stroke-dasharray:none;stroke-opacity:1"
     inkscape:connector-curvature="0" />
  <path
     d="M 46.120595,225.95704 H 290.57762 c 4.19141,0 7.58985,-3.39844 7.58985,-7.58984 0,-4.19141 -3.39844,-7.58985 -7.58985,-7.58985 H 46.120595 c -4.191406,0 -7.589844,3.39844 -7.589844,7.58985 0,4.1914 3.398438,7.58984 7.589844,7.58984 z m 0,0"
     id="path8"
     style="fill:#bad700;fill-opacity:1;stroke:#bad700;stroke-width:6.00001144;stroke-miterlimit:4;stroke-dasharray:none;stroke-opacity:1"
     inkscape:connector-curvature="0" />
  <path
     d="M 46.120595,270.03907 H 290.57762 c 4.19141,0 7.58985,-3.39844 7.58985,-7.58984 0,-4.19141 -3.39844,-7.58984 -7.58985,-7.58984 H 46.120595 c -4.191406,0 -7.589844,3.39843 -7.589844,7.58984 0,4.1914 3.398438,7.58984 7.589844,7.58984 z m 0,0"
     id="path10"
     style="fill:#bad700;fill-opacity:1;stroke:#bad700;stroke-width:6.00001144;stroke-miterlimit:4;stroke-dasharray:none;stroke-opacity:1"
     inkscape:connector-curvature="0" />
</svg>
