<?xml version="1.0" encoding="UTF-8" standalone="no"?>
<svg
   xmlns:dc="http://purl.org/dc/elements/1.1/"
   xmlns:cc="http://creativecommons.org/ns#"
   xmlns:rdf="http://www.w3.org/1999/02/22-rdf-syntax-ns#"
   xmlns:svg="http://www.w3.org/2000/svg"
   xmlns="http://www.w3.org/2000/svg"
   xmlns:sodipodi="http://sodipodi.sourceforge.net/DTD/sodipodi-0.dtd"
   xmlns:inkscape="http://www.inkscape.org/namespaces/inkscape"
   height="580pt"
   viewBox="-38 0 460 580.00115"
   width="460pt"
   version="1.1"
   id="svg12"
   sodipodi:docname="email-message-1.svg"
   inkscape:version="0.92.2 (5c3e80d, 2017-08-06)">
  <metadata
     id="metadata18">
    <rdf:RDF>
      <cc:Work
         rdf:about="">
        <dc:format>image/svg+xml</dc:format>
        <dc:type
           rdf:resource="http://purl.org/dc/dcmitype/StillImage" />
        <dc:title />
      </cc:Work>
    </rdf:RDF>
  </metadata>
  <defs
     id="defs16" />
  <sodipodi:namedview
     pagecolor="#ffffff"
     bordercolor="#666666"
     borderopacity="1"
     objecttolerance="10"
     gridtolerance="10"
     guidetolerance="10"
     inkscape:pageopacity="0"
     inkscape:pageshadow="2"
     inkscape:window-width="1920"
     inkscape:window-height="986"
     id="namedview14"
     showgrid="false"
     fit-margin-top="0"
     fit-margin-left="0"
     fit-margin-right="0"
     fit-margin-bottom="0"
     inkscape:zoom="0.69140626"
     inkscape:cx="-205.09913"
     inkscape:cy="441.92607"
     inkscape:window-x="-11"
     inkscape:window-y="-11"
     inkscape:window-maximized="1"
     inkscape:current-layer="svg12" />
  <rect
     style="opacity:1;fill:#4fffff;fill-opacity:0.68049795;fill-rule:nonzero;stroke:#ba2300;stroke-width:12.00002411;stroke-linejoin:bevel;stroke-miterlimit:4;stroke-dasharray:none;stroke-opacity:1"
     id="rect819"
     width="397.01773"
     height="492.47556"
     x="7.558959"
     y="13.762733"
     ry="60.745884" />
  <path
     d="M 54.798578,324.0504 H 299.2556 c 4.19141,0 7.58985,-3.39844 7.58985,-7.58985 0,-4.1914 -3.39844,-7.58984 -7.58985,-7.58984 H 54.798578 c -4.191406,0 -7.589844,3.39844 -7.589844,7.58984 0,4.19141 3.398438,7.58985 7.589844,7.58985 z m 0,0"
     id="path4"
     style="fill:#bad700;fill-opacity:1;stroke:#bad700;stroke-width:6.00001144;stroke-miterlimit:4;stroke-dasharray:none;stroke-opacity:1"
     inkscape:connector-curvature="0" />
  <path
     d="M 54.798578,368.13243 H 299.2556 c 4.19141,0 7.58985,-3.39844 7.58985,-7.58985 0,-4.1914 -3.39844,-7.58984 -7.58985,-7.58984 H 54.798578 c -4.191406,0 -7.589844,3.39844 -7.589844,7.58984 0,4.19141 3.398438,7.58985 7.589844,7.58985 z m 0,0"
     id="path6"
     style="fill:#bad700;fill-opacity:1;stroke:#bad700;stroke-width:6.00001144;stroke-miterlimit:4;stroke-dasharray:none;stroke-opacity:1"
     inkscape:connector-curvature="0" />
  <path
     d="M 54.798578,235.89024 H 299.2556 c 4.19141,0 7.58985,-3.39844 7.58985,-7.58984 0,-4.19141 -3.39844,-7.58985 -7.58985,-7.58985 H 54.798578 c -4.191406,0 -7.589844,3.39844 -7.589844,7.58985 0,4.1914 3.398438,7.58984 7.589844,7.58984 z m 0,0"
     id="path8"
     style="fill:#bad700;fill-opacity:1;stroke:#bad700;stroke-width:6.00001144;stroke-miterlimit:4;stroke-dasharray:none;stroke-opacity:1"
     inkscape:connector-curvature="0" />
  <path
     d="M 54.798578,279.97227 H 299.2556 c 4.19141,0 7.58985,-3.39844 7.58985,-7.58984 0,-4.19141 -3.39844,-7.58984 -7.58985,-7.58984 H 54.798578 c -4.191406,0 -7.589844,3.39843 -7.589844,7.58984 0,4.1914 3.398438,7.58984 7.589844,7.58984 z m 0,0"
     id="path10"
     style="fill:#bad700;fill-opacity:1;stroke:#bad700;stroke-width:6.00001144;stroke-miterlimit:4;stroke-dasharray:none;stroke-opacity:1"
     inkscape:connector-curvature="0" />
  <path
     style="opacity:1;fill:#000000;fill-opacity:1;fill-rule:nonzero;stroke:#ba2300;stroke-width:16;stroke-linejoin:bevel;stroke-miterlimit:4;stroke-dasharray:none;stroke-opacity:1"
     d="M 227.96484 57.400391 L 30.373047 246.12891 L 30.373047 633.03906 C 30.373047 677.90993 66.496315 714.0332 111.36719 714.0332 L 478.73438 714.0332 C 523.60525 714.0332 559.72852 677.90993 559.72852 633.03906 L 559.72852 138.39453 C 559.72852 93.523659 523.60525 57.400391 478.73438 57.400391 L 227.96484 57.400391 z "
     id="rect819-3"
     transform="matrix(0.75000151,0,0,0.75000151,-38.000454,0)" />
</svg>
