<?xml version="1.0" encoding="UTF-8" standalone="no"?>
<!-- Generator: Adobe Illustrator 19.0.0, SVG Export Plug-In . SVG Version: 6.00 Build 0)  -->

<svg
   xmlns:dc="http://purl.org/dc/elements/1.1/"
   xmlns:cc="http://creativecommons.org/ns#"
   xmlns:rdf="http://www.w3.org/1999/02/22-rdf-syntax-ns#"
   xmlns:svg="http://www.w3.org/2000/svg"
   xmlns="http://www.w3.org/2000/svg"
   xmlns:sodipodi="http://sodipodi.sourceforge.net/DTD/sodipodi-0.dtd"
   xmlns:inkscape="http://www.inkscape.org/namespaces/inkscape"
   version="1.1"
   id="Capa_1"
   x="0px"
   y="0px"
   viewBox="0 0 512 512"
   style="enable-background:new 0 0 512 512;"
   xml:space="preserve"
   sodipodi:docname="gallery.svg"
   inkscape:version="0.92.2 (5c3e80d, 2017-08-06)"><metadata
     id="metadata43"><rdf:RDF><cc:Work
         rdf:about=""><dc:format>image/svg+xml</dc:format><dc:type
           rdf:resource="http://purl.org/dc/dcmitype/StillImage" /></cc:Work></rdf:RDF></metadata><defs
     id="defs41" /><sodipodi:namedview
     pagecolor="#ffffff"
     bordercolor="#666666"
     borderopacity="1"
     objecttolerance="10"
     gridtolerance="10"
     guidetolerance="10"
     inkscape:pageopacity="0"
     inkscape:pageshadow="2"
     inkscape:window-width="1920"
     inkscape:window-height="986"
     id="namedview39"
     showgrid="false"
     inkscape:zoom="0.4609375"
     inkscape:cx="256"
     inkscape:cy="256"
     inkscape:window-x="-11"
     inkscape:window-y="-11"
     inkscape:window-maximized="1"
     inkscape:current-layer="Capa_1" /><g
     fill="#277a9e"
     id="g6"
     style="fill:#4A5779;fill-opacity:1"><g
       id="g4"
       style="fill:#4A5779;fill-opacity:1"><path
         d="M0,0v30h194v45c0,32.644,2.622,65.539,7.793,97.77l32.257,201.073c6.177,38.502,25.921,73.636,55.598,98.932    C319.325,498.069,357.145,512,396.139,512h77c-38.994,0-76.813-13.931-106.489-39.226c-29.677-25.295-49.423-60.43-55.599-98.932    L278.793,172.77l29.621-4.752l32.258,201.073c5.048,31.466,21.185,60.179,45.438,80.852c21.1,17.984,47.236,28.935,74.658,31.48    c-12.129-8.666-23.099-18.959-32.5-30.623c-17.864-22.164-29.696-48.775-34.217-76.957L361.793,172.77l29.621-4.752    l32.258,201.073c3.695,23.034,13.361,44.778,27.953,62.882c14.289,17.729,32.971,31.625,54.024,40.185l6.351,2.759V0H0z     M266,66.674c-12.888,6.473-29.113,6.473-42,0V30h42V66.674z M338,66.674c-12.887,6.474-29.112,6.474-42,0V30h42V66.674z     M410,66.674c-12.888,6.474-29.113,6.474-42,0.001V30h42V66.674z M482,66.674c-12.887,6.474-29.113,6.473-42,0V30h42V66.674z"
         id="path2"
         style="fill:#4A5779;fill-opacity:1" /></g></g><g
     fill="#277a9e"
     id="g12"
     style="fill:#4A5779;fill-opacity:1"><g
       id="g10"
       style="fill:#4A5779;fill-opacity:1"><rect
         x="133"
         y="76"
         width="30"
         height="25"
         id="rect8"
         style="fill:#4A5779;fill-opacity:1" /></g></g><g
     fill="#277a9e"
     id="g18"
     style="fill:#4A5779;fill-opacity:1"><g
       id="g16"
       style="fill:#4A5779;fill-opacity:1"><path
         d="M202.429,378.595l-13.491-84.096l-26.343,8.781c-2.404,0.801-4.872,1.192-7.313,1.192c-5.921,0-11.695-2.298-16.08-6.606    c-6.193-6.085-8.424-15.012-5.823-23.295l9.703-30.905l-40.837,26.866l-16.488-25.063l57.246-37.662    c8.232-5.416,18.633-5.079,26.498,0.857c3.137,2.368,5.514,5.375,7.067,8.723l-6.395-39.865    c-2.47-15.393-4.378-30.931-5.732-46.522H31v220H0v30h202.843C202.704,380.199,202.558,379.399,202.429,378.595z"
         id="path14"
         style="fill:#4A5779;fill-opacity:1" /></g></g><g
     fill="#277a9e"
     id="g24"
     style="fill:#4A5779;fill-opacity:1"><g
       id="g22"
       style="fill:#4A5779;fill-opacity:1"><path
         d="M178.509,229.492c-0.168,1.474-0.462,2.952-0.922,4.419l-11.483,36.576l18.018-6.006L178.509,229.492z"
         id="path20"
         style="fill:#4A5779;fill-opacity:1" /></g></g><g
     fill="#277a9e"
     id="g30"
     style="fill:#4A5779;fill-opacity:1"><g
       id="g28"
       style="fill:#4A5779;fill-opacity:1"><polygon
         points="207.096,411 176.526,411 196.28,511.882 225.72,506.118   "
         id="polygon26"
         style="fill:#4A5779;fill-opacity:1" /></g></g><g
     fill="#277a9e"
     id="g36"
     style="fill:#4A5779;fill-opacity:1"><g
       id="g34"
       style="fill:#4A5779;fill-opacity:1"><polygon
         points="88.904,411 70.28,506.118 99.72,511.882 119.474,411   "
         id="polygon32"
         style="fill:#4A5779;fill-opacity:1" /></g></g></svg>