<svg xmlns="http://www.w3.org/2000/svg" width="150.39" height="67.056" viewBox="0 0 150.39034 67.056482"><path style="line-height:normal;text-indent:0;text-align:start;text-decoration-line:none;text-decoration-style:solid;text-decoration-color:#000;text-transform:none;block-progression:tb;isolation:auto;mix-blend-mode:normal" d="M144.808.234a5.5 5.5 0 0 0-5.418 5.579V61.46a5.5 5.5 0 1 0 11 0V5.813a5.5 5.5 0 0 0-5.582-5.579zM85.282.242a5.5 5.5 0 0 0-5.261 7.506l20.908 55.647a5.5 5.5 0 0 0 10.306-.026l20.592-55.648a5.5 5.5 0 1 0-10.316-3.817L106.038 45.72 90.32 3.879A5.5 5.5 0 0 0 85.282.242zM66.714 0a5.5 5.5 0 0 0-5.418 5.579v55.648a5.5 5.5 0 1 0 11 0V5.58A5.5 5.5 0 0 0 66.714 0zM26.978.314a5.5 5.5 0 0 0-5.06 3.516L.407 59.48a5.5 5.5 0 1 0 10.26 3.964l5.567-14.406h22.317l5.842 14.48a5.5 5.5 0 1 0 10.2-4.113L32.149 3.756a5.5 5.5 0 0 0-5.17-3.442zm.177 20.471l6.96 17.252H20.486l6.668-17.252z" overflow="visible" color="#000" font-weight="400" font-family="sans-serif" white-space="normal" fill="#FFFFFF" fill-rule="evenodd"/></svg>