<?xml version="1.0" encoding="UTF-8" standalone="no"?>
<!-- Generator: Adobe Illustrator 19.0.0, SVG Export Plug-In . SVG Version: 6.00 Build 0)  -->

<svg
   xmlns:dc="http://purl.org/dc/elements/1.1/"
   xmlns:cc="http://creativecommons.org/ns#"
   xmlns:rdf="http://www.w3.org/1999/02/22-rdf-syntax-ns#"
   xmlns:svg="http://www.w3.org/2000/svg"
   xmlns="http://www.w3.org/2000/svg"
   xmlns:sodipodi="http://sodipodi.sourceforge.net/DTD/sodipodi-0.dtd"
   xmlns:inkscape="http://www.inkscape.org/namespaces/inkscape"
   version="1.1"
   id="Capa_1"
   x="0px"
   y="0px"
   viewBox="0 0 900 900"
   xml:space="preserve"
   sodipodi:docname="paper-plane-1.svg"
   inkscape:version="0.92.2 (5c3e80d, 2017-08-06)"
   width="900"
   height="900"><metadata
     id="metadata79"><rdf:RDF><cc:Work
         rdf:about=""><dc:format>image/svg+xml</dc:format><dc:type
           rdf:resource="http://purl.org/dc/dcmitype/StillImage" /><dc:title></dc:title></cc:Work></rdf:RDF></metadata><defs
     id="defs77" /><sodipodi:namedview
     pagecolor="#ffffff"
     bordercolor="#666666"
     borderopacity="1"
     objecttolerance="10"
     gridtolerance="10"
     guidetolerance="10"
     inkscape:pageopacity="0"
     inkscape:pageshadow="2"
     inkscape:window-width="1920"
     inkscape:window-height="986"
     id="namedview75"
     showgrid="false"
     inkscape:zoom="0.4609375"
     inkscape:cx="-147.52542"
     inkscape:cy="256"
     inkscape:window-x="-11"
     inkscape:window-y="-11"
     inkscape:window-maximized="1"
     inkscape:current-layer="Capa_1"
     fit-margin-top="0" /><g
     id="g6"
     style="fill:#bad700;fill-opacity:1;stroke:#bad700;stroke-width:10;stroke-miterlimit:4;stroke-dasharray:none;stroke-opacity:1"
     transform="translate(158.37288,203.59322)"><g
       id="g4"
       style="fill:#bad700;fill-opacity:1;stroke:#bad700;stroke-width:10;stroke-miterlimit:4;stroke-dasharray:none;stroke-opacity:1"><path
         d="M 506.955,1.314 C 503.836,-0.466 500,-0.436 496.91,1.392 L 313.656,109.756 c -4.754,2.811 -6.329,8.943 -3.518,13.697 2.81,4.753 8.942,6.328 13.697,3.518 L 455.317,49.222 210.411,303.335 88.603,266.069 l 158.965,-94 c 4.754,-2.812 6.329,-8.944 3.518,-13.698 -2.81,-4.753 -8.943,-6.33 -13.697,-3.518 L 58.91,260.392 c -3.41,2.017 -5.309,5.856 -4.84,9.791 0.469,3.935 3.216,7.221 7.004,8.38 l 145.469,44.504 64.177,116.813 c 0.067,0.121 0.136,0.223 0.207,0.314 1.071,1.786 2.676,3.245 4.678,4.087 1.253,0.527 2.57,0.784 3.878,0.784 2.563,0 5.086,-0.986 6.991,-2.849 l 73.794,-72.12 138.806,42.466 c 0.96,0.293 1.945,0.438 2.925,0.438 2.116,0 4.206,-0.672 5.948,-1.961 C 510.496,409.153 512,406.17 512,403 V 10 c 0,-3.591 -1.926,-6.907 -5.045,-8.686 z M 271.265,329.23 c -1.158,1.673 -1.779,3.659 -1.779,5.694 v 61.171 L 225.663,316.33 419.584,115.12 Z m 18.221,82.079 v -62.867 l 48.99,14.988 z M 492,389.483 295.501,329.367 492,45.704 Z"
         id="path2"
         style="fill:#bad700;fill-opacity:1;stroke:#bad700;stroke-width:10;stroke-miterlimit:4;stroke-dasharray:none;stroke-opacity:1"
         inkscape:connector-curvature="0" /></g></g><g
     id="g12"
     style="fill:#bad700;fill-opacity:1;stroke:#bad700;stroke-width:10;stroke-miterlimit:4;stroke-dasharray:none;stroke-opacity:1"
     transform="translate(158.37288,203.59322)"><g
       id="g10"
       style="fill:#bad700;fill-opacity:1;stroke:#bad700;stroke-width:10;stroke-miterlimit:4;stroke-dasharray:none;stroke-opacity:1"><path
         d="m 164.423,347.577 c -3.906,-3.905 -10.236,-3.905 -14.143,0 l -93.352,93.352 c -3.905,3.905 -3.905,10.237 0,14.143 1.954,1.952 4.513,2.928 7.072,2.928 2.559,0 5.118,-0.976 7.071,-2.929 l 93.352,-93.352 c 3.905,-3.904 3.905,-10.236 0,-14.142 z"
         id="path8"
         style="fill:#bad700;fill-opacity:1;stroke:#bad700;stroke-width:10;stroke-miterlimit:4;stroke-dasharray:none;stroke-opacity:1"
         inkscape:connector-curvature="0" /></g></g><g
     id="g18"
     style="fill:#bad700;fill-opacity:1;stroke:#bad700;stroke-width:10;stroke-miterlimit:4;stroke-dasharray:none;stroke-opacity:1"
     transform="translate(158.37288,203.59322)"><g
       id="g16"
       style="fill:#bad700;fill-opacity:1;stroke:#bad700;stroke-width:10;stroke-miterlimit:4;stroke-dasharray:none;stroke-opacity:1"><path
         d="m 40.071,471.928 c -3.906,-3.903 -10.236,-3.903 -14.142,10e-4 l -23,23 c -3.905,3.905 -3.905,10.237 0,14.143 C 4.882,511.024 7.441,512 10,512 c 2.559,0 5.118,-0.977 7.071,-2.929 l 23,-23 c 3.905,-3.905 3.905,-10.237 0,-14.143 z"
         id="path14"
         style="fill:#bad700;fill-opacity:1;stroke:#bad700;stroke-width:10;stroke-miterlimit:4;stroke-dasharray:none;stroke-opacity:1"
         inkscape:connector-curvature="0" /></g></g><g
     id="g24"
     style="fill:#bad700;fill-opacity:1;stroke:#bad700;stroke-width:10;stroke-miterlimit:4;stroke-dasharray:none;stroke-opacity:1"
     transform="translate(158.37288,203.59322)"><g
       id="g22"
       style="fill:#bad700;fill-opacity:1;stroke:#bad700;stroke-width:10;stroke-miterlimit:4;stroke-dasharray:none;stroke-opacity:1"><path
         d="m 142.649,494.34 c -1.859,-1.86 -4.439,-2.93 -7.069,-2.93 -2.641,0 -5.21,1.07 -7.07,2.93 -1.86,1.86 -2.93,4.43 -2.93,7.07 0,2.63 1.069,5.21 2.93,7.07 1.86,1.86 4.44,2.93 7.07,2.93 2.63,0 5.21,-1.07 7.069,-2.93 1.86,-1.86 2.931,-4.44 2.931,-7.07 0,-2.64 -1.07,-5.21 -2.931,-7.07 z"
         id="path20"
         style="fill:#bad700;fill-opacity:1;stroke:#bad700;stroke-width:10;stroke-miterlimit:4;stroke-dasharray:none;stroke-opacity:1"
         inkscape:connector-curvature="0" /></g></g><g
     id="g30"
     style="fill:#bad700;fill-opacity:1;stroke:#bad700;stroke-width:10;stroke-miterlimit:4;stroke-dasharray:none;stroke-opacity:1"
     transform="translate(158.37288,203.59322)"><g
       id="g28"
       style="fill:#bad700;fill-opacity:1;stroke:#bad700;stroke-width:10;stroke-miterlimit:4;stroke-dasharray:none;stroke-opacity:1"><path
         d="m 217.051,419.935 c -3.903,-3.905 -10.233,-3.905 -14.142,0 l -49.446,49.445 c -3.905,3.905 -3.905,10.237 0,14.142 1.953,1.953 4.512,2.929 7.071,2.929 2.559,0 5.118,-0.977 7.071,-2.929 l 49.446,-49.445 c 3.905,-3.905 3.905,-10.237 0,-14.142 z"
         id="path26"
         style="fill:#bad700;fill-opacity:1;stroke:#bad700;stroke-width:10;stroke-miterlimit:4;stroke-dasharray:none;stroke-opacity:1"
         inkscape:connector-curvature="0" /></g></g><g
     id="g36"
     style="fill:#bad700;fill-opacity:1;stroke:#bad700;stroke-width:10;stroke-miterlimit:4;stroke-dasharray:none;stroke-opacity:1"
     transform="translate(158.37288,203.59322)"><g
       id="g34"
       style="fill:#bad700;fill-opacity:1;stroke:#bad700;stroke-width:10;stroke-miterlimit:4;stroke-dasharray:none;stroke-opacity:1"><path
         d="m 387.704,416.139 c -3.906,-3.904 -10.236,-3.904 -14.142,0 l -49.58,49.58 c -3.905,3.905 -3.905,10.237 0,14.143 1.953,1.952 4.512,2.929 7.071,2.929 2.559,0 5.118,-0.977 7.071,-2.929 l 49.58,-49.58 c 3.905,-3.905 3.905,-10.237 0,-14.143 z"
         id="path32"
         style="fill:#bad700;fill-opacity:1;stroke:#bad700;stroke-width:10;stroke-miterlimit:4;stroke-dasharray:none;stroke-opacity:1"
         inkscape:connector-curvature="0" /></g></g><g
     id="g42"
     style="fill:#bad700;fill-opacity:1;stroke:#bad700;stroke-width:10;stroke-miterlimit:4;stroke-dasharray:none;stroke-opacity:1"
     transform="translate(158.37288,203.59322)"><g
       id="g40"
       style="fill:#bad700;fill-opacity:1;stroke:#bad700;stroke-width:10;stroke-miterlimit:4;stroke-dasharray:none;stroke-opacity:1"><path
         d="m 283.5,136.31 c -1.86,-1.86 -4.44,-2.93 -7.07,-2.93 -2.63,0 -5.21,1.07 -7.07,2.93 -1.859,1.86 -2.93,4.44 -2.93,7.08 0,2.63 1.07,5.2 2.93,7.06 1.86,1.87 4.44,2.93 7.07,2.93 2.63,0 5.21,-1.06 7.07,-2.93 1.859,-1.86 2.93,-4.43 2.93,-7.06 0,-2.64 -1.07,-5.22 -2.93,-7.08 z"
         id="path38"
         style="fill:#bad700;fill-opacity:1;stroke:#bad700;stroke-width:10;stroke-miterlimit:4;stroke-dasharray:none;stroke-opacity:1"
         inkscape:connector-curvature="0" /></g></g><g
     id="g44"
     transform="translate(0,388)" /><g
     id="g46"
     transform="translate(0,388)" /><g
     id="g48"
     transform="translate(0,388)" /><g
     id="g50"
     transform="translate(0,388)" /><g
     id="g52"
     transform="translate(0,388)" /><g
     id="g54"
     transform="translate(0,388)" /><g
     id="g56"
     transform="translate(0,388)" /><g
     id="g58"
     transform="translate(0,388)" /><g
     id="g60"
     transform="translate(0,388)" /><g
     id="g62"
     transform="translate(0,388)" /><g
     id="g64"
     transform="translate(0,388)" /><g
     id="g66"
     transform="translate(0,388)" /><g
     id="g68"
     transform="translate(0,388)" /><g
     id="g70"
     transform="translate(0,388)" /><g
     id="g72"
     transform="translate(0,388)" /></svg>