<?xml version="1.0" encoding="UTF-8" standalone="no"?>
<svg
   xmlns:dc="http://purl.org/dc/elements/1.1/"
   xmlns:cc="http://creativecommons.org/ns#"
   xmlns:rdf="http://www.w3.org/1999/02/22-rdf-syntax-ns#"
   xmlns:svg="http://www.w3.org/2000/svg"
   xmlns="http://www.w3.org/2000/svg"
   xmlns:sodipodi="http://sodipodi.sourceforge.net/DTD/sodipodi-0.dtd"
   xmlns:inkscape="http://www.inkscape.org/namespaces/inkscape"
   version="1.1"
   id="Capa_1"
   x="0px"
   y="0px"
   width="104.95997"
   height="82.097404"
   viewBox="0 0 104.95997 82.097405"
   xml:space="preserve"
   sodipodi:docname="phone-email.svg"
   inkscape:version="0.92.2 (5c3e80d, 2017-08-06)"><metadata
     id="metadata11"><rdf:RDF><cc:Work
         rdf:about=""><dc:format>image/svg+xml</dc:format><dc:type
           rdf:resource="http://purl.org/dc/dcmitype/StillImage" /><dc:title></dc:title></cc:Work></rdf:RDF></metadata><defs
     id="defs9" /><sodipodi:namedview
     pagecolor="#ffffff"
     bordercolor="#666666"
     borderopacity="1"
     objecttolerance="10"
     gridtolerance="10"
     guidetolerance="10"
     inkscape:pageopacity="0"
     inkscape:pageshadow="2"
     inkscape:window-width="1920"
     inkscape:window-height="986"
     id="namedview7"
     showgrid="false"
     fit-margin-top="0"
     fit-margin-left="0"
     fit-margin-right="0"
     fit-margin-bottom="0"
     inkscape:zoom="2.8868149"
     inkscape:cx="63.391665"
     inkscape:cy="41.568307"
     inkscape:window-x="-11"
     inkscape:window-y="-11"
     inkscape:window-maximized="1"
     inkscape:current-layer="Capa_1" /><g
     id="g4"
     style="fill:#90a128"
     transform="translate(22.516165,-0.34640253)"><path
       d="M 78.863,24.446 H 49.882 V 5.522 C 49.882,2.482 47.399,0 44.362,0 H 7.914 C 4.875,0 2.393,2.483 2.393,5.522 v 70.707 c 0,3.038 2.483,5.522 5.521,5.522 h 36.448 c 3.036,0 5.52,-2.484 5.52,-5.522 V 59.915 h 13.226 2.964 l 0.161,-0.44 12.053,-32.165 1.072,-2.866 z m -47.73,4.859 9.653,10.607 -19.796,16.463 z m 2.078,-2.294 h 41.4 L 47.877,43.117 Z M 20.306,3.982 h 11.661 c 0.368,0 0.67,0.299 0.67,0.668 0,0.366 -0.302,0.667 -0.67,0.667 H 20.306 c -0.368,0 -0.666,-0.301 -0.666,-0.667 0,-0.369 0.298,-0.668 0.666,-0.668 z m 5.83,75.012 c -1.522,0 -2.761,-1.234 -2.761,-2.763 0,-1.521 1.236,-2.76 2.761,-2.76 1.525,0 2.764,1.233 2.764,2.76 0,1.528 -1.239,2.763 -2.764,2.763 z M 46.038,71.537 H 6.233 V 8.759 h 39.805 v 15.689 h -15.161 -0.49 l -0.696,1.854 H 10.454 v 4.236 H 28.105 L 26.691,34.31 H 16.242 v 3.176 h 9.259 l -1.196,3.191 h -6.087 v 2.58 h 5.12 l -6.075,16.209 -0.167,0.447 h 2.96 25.987 z M 23.139,57.355 42.22,41.486 l 4.441,4.879 8.094,-4.879 7.191,15.869 z M 64.83,56.376 57.368,39.911 74.973,29.304 Z"
       id="path2"
       inkscape:connector-curvature="0" /></g></svg>