<?xml version="1.0" encoding="UTF-8" standalone="no"?>
<!-- Generator: Adobe Illustrator 18.1.1, SVG Export Plug-In . SVG Version: 6.00 Build 0)  -->

<svg
   xmlns:dc="http://purl.org/dc/elements/1.1/"
   xmlns:cc="http://creativecommons.org/ns#"
   xmlns:rdf="http://www.w3.org/1999/02/22-rdf-syntax-ns#"
   xmlns:svg="http://www.w3.org/2000/svg"
   xmlns="http://www.w3.org/2000/svg"
   xmlns:sodipodi="http://sodipodi.sourceforge.net/DTD/sodipodi-0.dtd"
   xmlns:inkscape="http://www.inkscape.org/namespaces/inkscape"
   version="1.1"
   id="Capa_1"
   x="0px"
   y="0px"
   viewBox="0 0 235.065 235.065"
   style="enable-background:new 0 0 235.065 235.065;"
   xml:space="preserve"
   sodipodi:docname="scs-at.svg"
   inkscape:version="0.92.2 (5c3e80d, 2017-08-06)"><metadata
     id="metadata43"><rdf:RDF><cc:Work
         rdf:about=""><dc:format>image/svg+xml</dc:format><dc:type
           rdf:resource="http://purl.org/dc/dcmitype/StillImage" /><dc:title></dc:title></cc:Work></rdf:RDF></metadata><defs
     id="defs41" /><sodipodi:namedview
     pagecolor="#ffffff"
     bordercolor="#666666"
     borderopacity="1"
     objecttolerance="10"
     gridtolerance="10"
     guidetolerance="10"
     inkscape:pageopacity="0"
     inkscape:pageshadow="2"
     inkscape:window-width="1920"
     inkscape:window-height="986"
     id="namedview39"
     showgrid="false"
     inkscape:zoom="0.5019888"
     inkscape:cx="39.333751"
     inkscape:cy="92.682948"
     inkscape:window-x="-11"
     inkscape:window-y="-11"
     inkscape:window-maximized="1"
     inkscape:current-layer="Capa_1" /><g
     id="g6"
     style="fill:#ba3000;fill-opacity:1"><g
       id="g4"
       style="fill:#ba3000;fill-opacity:1" /></g><g
     id="g8" /><g
     id="g10" /><g
     id="g12" /><g
     id="g14" /><g
     id="g16" /><g
     id="g18" /><g
     id="g20" /><g
     id="g22" /><g
     id="g24" /><g
     id="g26" /><g
     id="g28" /><g
     id="g30" /><g
     id="g32" /><g
     id="g34" /><g
     id="g36" /><path
     style="opacity:1;fill:none;fill-opacity:1;fill-rule:nonzero;stroke:#ffffff;stroke-width:20;stroke-linecap:square;stroke-linejoin:round;stroke-miterlimit:4;stroke-dasharray:none;stroke-opacity:1"
     d="m 161.61304,73.612483 -8.07448,36.086177 c 0,0 -39.79325,67.96546 -69.726226,55.99227 0,0 -25.707145,-10.91674 -6.690901,-59.86596 16.903328,-36.623877 42.258317,-36.976025 42.258317,-36.976025 25.72345,-4.289419 34.48628,15.721637 34.15881,40.849715 l -7.74736,39.79325 c -1.08852,26.03792 29.50969,21.51536 39.25984,18.10565 11.26377,-3.55346 23.61926,-10.39368 32.42308,-25.18409 15.55513,-25.45081 2.35459,-62.743605 2.35459,-62.743605 C 211.93548,60.316129 199.39349,45.233984 183.45688,32.783507 156.40154,10.185317 115.98943,11.714767 115.98943,11.714767 56.059249,12.989877 17.108636,59.77292 12.930728,109.83074 c -3.8458404,46.07912 24.346806,101.60367 86.657689,113.61323 18.323993,5.1224 47.269613,-0.37288 60.716133,-5.35307"
     id="path850"
     inkscape:connector-curvature="0"
     sodipodi:nodetypes="ccccccccccccscc" /></svg>