<?xml version="1.0" encoding="UTF-8" standalone="no"?>
<!-- Generator: Adobe Illustrator 19.0.0, SVG Export Plug-In . SVG Version: 6.00 Build 0)  -->

<svg
   xmlns:dc="http://purl.org/dc/elements/1.1/"
   xmlns:cc="http://creativecommons.org/ns#"
   xmlns:rdf="http://www.w3.org/1999/02/22-rdf-syntax-ns#"
   xmlns:svg="http://www.w3.org/2000/svg"
   xmlns="http://www.w3.org/2000/svg"
   xmlns:sodipodi="http://sodipodi.sourceforge.net/DTD/sodipodi-0.dtd"
   xmlns:inkscape="http://www.inkscape.org/namespaces/inkscape"
   version="1.1"
   id="Capa_1"
   x="0px"
   y="0px"
   viewBox="0 0 512 512"
   style="enable-background:new 0 0 512 512;"
   xml:space="preserve"
   sodipodi:docname="skills-white.svg"
   inkscape:version="0.92.2 (5c3e80d, 2017-08-06)"><metadata
     id="metadata25"><rdf:RDF><cc:Work
         rdf:about=""><dc:format>image/svg+xml</dc:format><dc:type
           rdf:resource="http://purl.org/dc/dcmitype/StillImage" /><dc:title></dc:title></cc:Work></rdf:RDF></metadata><defs
     id="defs23" /><sodipodi:namedview
     pagecolor="#ffffff"
     bordercolor="#666666"
     borderopacity="1"
     objecttolerance="10"
     gridtolerance="10"
     guidetolerance="10"
     inkscape:pageopacity="0"
     inkscape:pageshadow="2"
     inkscape:window-width="1920"
     inkscape:window-height="986"
     id="namedview21"
     showgrid="false"
     inkscape:zoom="0.4609375"
     inkscape:cx="256"
     inkscape:cy="256"
     inkscape:window-x="-11"
     inkscape:window-y="-11"
     inkscape:window-maximized="1"
     inkscape:current-layer="Capa_1" /><g
     id="g6"
     style="fill:#ffffff;fill-opacity:1"><g
       id="g4"
       style="fill:#ffffff;fill-opacity:1"><path
         d="M 452,361.518 V 345 c 0,-24.814 -20.186,-45 -45,-45 H 271 v -30.892 c 14.967,-1.763 29.13,-6.088 42.255,-12.272 4.717,-17.737 2.424,-35.711 -7.495,-50.381 C 294.555,189.888 275.951,180 256,180 c -25.21,0 -47.9,15.923 -56.455,39.624 -4.349,12.039 -4.536,24.556 -1.232,36.976 13.246,6.301 27.556,10.708 42.687,12.499 V 300 H 106 c -24.814,0 -45,20.186 -45,45 v 16.518 C 26.809,368.487 0,399.784 0,436 c 0,41.353 34.647,76 76,76 41.353,0 75,-34.647 75,-76 0,-36.216 -25.809,-67.513 -60,-74.482 V 345 c 0,-8.276 6.724,-15 15,-15 h 135 v 31.518 c -34.191,6.969 -60,38.266 -60,74.482 0,41.353 33.647,76 75,76 41.353,0 75,-34.647 75,-76 0,-36.216 -25.809,-67.513 -60,-74.482 V 330 h 136 c 8.276,0 15,6.724 15,15 v 16.518 c -34.191,6.969 -60,38.266 -60,74.482 0,41.353 33.647,76 75,76 41.353,0 75,-34.647 75,-76 0,-36.216 -25.809,-67.513 -60,-74.482 z"
         id="path2"
         inkscape:connector-curvature="0"
         style="fill:#ffffff;fill-opacity:1" /></g></g><g
     id="g12"
     style="fill:#ffffff;fill-opacity:1"><g
       id="g10"
       style="fill:#ffffff;fill-opacity:1"><path
         d="m 256,90 c -16.538,0 -30,13.462 -30,30 0,16.538 13.462,30 30,30 16.538,0 30,-13.462 30,-30 0,-16.538 -13.462,-30 -30,-30 z"
         id="path8"
         inkscape:connector-curvature="0"
         style="fill:#ffffff;fill-opacity:1" /></g></g><g
     id="g18"
     style="fill:#ffffff;fill-opacity:1"><g
       id="g16"
       style="fill:#ffffff;fill-opacity:1"><path
         d="m 256,0 c -74.559,0 -135,60.441 -135,135 0,39.999 17.732,75.551 45.37,100.27 0.465,-8.692 1.891,-17.353 4.948,-25.827 7.575,-20.986 22.645,-37.733 41.413,-48.078 C 202.423,150.588 196,136.06 196,120 c 0,-33.091 26.909,-60 60,-60 33.091,0 60,26.909 60,60 0,16.024 -6.401,30.518 -16.666,41.288 12.315,6.785 23.137,16.335 31.27,28.365 9.346,13.815 14.079,29.522 14.888,45.731 C 373.208,210.661 391,175.063 391,135 391,60.441 330.559,0 256,0 Z"
         id="path14"
         inkscape:connector-curvature="0"
         style="fill:#ffffff;fill-opacity:1" /></g></g></svg>