<?xml version="1.0" encoding="UTF-8" standalone="no"?>
<svg
   xmlns:dc="http://purl.org/dc/elements/1.1/"
   xmlns:cc="http://creativecommons.org/ns#"
   xmlns:rdf="http://www.w3.org/1999/02/22-rdf-syntax-ns#"
   xmlns:svg="http://www.w3.org/2000/svg"
   xmlns="http://www.w3.org/2000/svg"
   xmlns:sodipodi="http://sodipodi.sourceforge.net/DTD/sodipodi-0.dtd"
   xmlns:inkscape="http://www.inkscape.org/namespaces/inkscape"
   height="600"
   viewBox="0 -41 600 600"
   width="600"
   version="1.1"
   id="svg8"
   sodipodi:docname="volume.svg"
   inkscape:version="0.92.2 (5c3e80d, 2017-08-06)">
  <metadata
     id="metadata14">
    <rdf:RDF>
      <cc:Work
         rdf:about="">
        <dc:format>image/svg+xml</dc:format>
        <dc:type
           rdf:resource="http://purl.org/dc/dcmitype/StillImage" />
        <dc:title />
      </cc:Work>
    </rdf:RDF>
  </metadata>
  <defs
     id="defs12" />
  <sodipodi:namedview
     pagecolor="#ffffff"
     bordercolor="#666666"
     borderopacity="1"
     objecttolerance="10"
     gridtolerance="10"
     guidetolerance="10"
     inkscape:pageopacity="0"
     inkscape:pageshadow="2"
     inkscape:window-width="1920"
     inkscape:window-height="986"
     id="namedview10"
     showgrid="false"
     units="px"
     fit-margin-top="0"
     fit-margin-left="0"
     fit-margin-right="0"
     fit-margin-bottom="0"
     inkscape:zoom="1.3828125"
     inkscape:cx="221.30024"
     inkscape:cy="314.10987"
     inkscape:window-x="-11"
     inkscape:window-y="-11"
     inkscape:window-maximized="1"
     inkscape:current-layer="svg8" />
  <path
     d="m 360.89389,41.800334 c -4.75391,-2.79297 -10.63281,-2.85547 -15.44531,-0.16797 L 166.66342,141.42924 H 64.722016 c -8.585937,0 -15.546875,6.96094 -15.546875,15.54688 v 195.03514 c 0,8.58594 6.960938,15.54688 15.546875,15.54688 H 166.66342 l 178.78125,99.79687 c 2.35938,1.31641 4.96875,1.97266 7.57813,1.97266 2.72265,0 5.44531,-0.71485 7.87109,-2.14063 4.75781,-2.78906 7.67578,-7.89062 7.67578,-13.40625 V 55.206584 c 0,-5.51172 -2.91797,-10.61328 -7.67578,-13.40625 z M 80.268891,172.52299 h 74.894529 v 163.9414 H 80.268891 Z M 337.47592,427.29642 186.25717,342.88626 V 166.10112 L 337.47592,81.690964 Z m 0,0"
     id="path2"
     inkscape:connector-curvature="0"
     style="fill:#ffffff;fill-opacity:1" />
  <path
     d="m 439.07748,168.19487 c -6.07422,-6.07032 -15.91797,-6.07032 -21.98828,0 -6.07031,6.07031 -6.07031,15.91405 0,21.98827 35.46094,35.46093 35.46094,93.16015 0,128.625 -6.07031,6.07031 -6.07031,15.91406 0,21.98437 3.03516,3.03516 7.01563,4.55469 10.99219,4.55469 3.98047,0 7.95703,-1.51953 10.99219,-4.55469 47.58593,-47.58594 47.58593,-125.01172 0.004,-172.59764 z m 0,0"
     id="path4"
     inkscape:connector-curvature="0"
     style="fill:#ffffff;fill-opacity:1" />
  <path
     d="m 500.13608,107.13627 c -6.07032,-6.07422 -15.91407,-6.07422 -21.98438,0 -6.07422,6.07031 -6.07422,15.91406 0,21.98437 33.48828,33.48829 51.92969,78.01172 51.92969,125.37109 0,47.36328 -18.44141,91.88672 -51.92969,125.375 -6.07031,6.07031 -6.07031,15.91406 0,21.98438 3.03516,3.03515 7.01563,4.55468 10.99219,4.55468 3.97656,0 7.95703,-1.51562 10.99219,-4.55468 39.36328,-39.35938 61.03906,-91.69141 61.03906,-147.35938 0,-55.66406 -21.67578,-107.99608 -61.03906,-147.35546 z m 0,0"
     id="path6"
     inkscape:connector-curvature="0"
     style="fill:#ffffff;fill-opacity:1" />
</svg>
